<?xml version="1.0" standalone="no"?>
<!DOCTYPE svg PUBLIC "-//W3C//DTD SVG 20010904//EN"
 "http://www.w3.org/TR/2001/REC-SVG-20010904/DTD/svg10.dtd">
<svg version="1.0" xmlns="http://www.w3.org/2000/svg"
 width="1280.000000pt" height="1280.000000pt" viewBox="0 0 1280.000000 1280.000000"
 preserveAspectRatio="xMidYMid meet">
<g transform="translate(0.000000,1280.000000) scale(0.100000,-0.100000)"
fill="#819B57" stroke="none">
<path d="M3645 12490 c-224 -35 -471 -223 -500 -381 -19 -104 93 -407 375
-1012 61 -131 89 -202 82 -209 -6 -6 -23 7 -48 39 -75 92 -147 158 -190 171
-155 46 -379 -42 -541 -212 -102 -106 -133 -174 -133 -291 0 -107 17 -153 143
-391 92 -175 208 -368 401 -673 53 -82 96 -155 96 -160 0 -5 -13 -36 -29 -68
-17 -32 -48 -103 -71 -158 -70 -169 -108 -219 -208 -268 -52 -25 -90 -35 -262
-68 -269 -51 -418 -146 -512 -325 -59 -114 -76 -178 -117 -439 -35 -226 -67
-296 -206 -455 -153 -175 -205 -286 -205 -440 0 -110 29 -203 128 -416 133
-285 134 -310 21 -619 -31 -82 -33 -100 -34 -205 0 -105 2 -120 27 -173 36
-76 128 -171 242 -249 167 -115 184 -136 262 -333 26 -66 57 -136 69 -155 56
-90 166 -155 325 -193 109 -26 114 -31 129 -137 15 -108 48 -325 71 -470 11
-69 25 -152 30 -185 5 -33 19 -121 30 -195 12 -74 32 -205 46 -290 43 -269 53
-332 74 -465 11 -71 27 -170 35 -220 29 -180 106 -651 115 -700 5 -27 19 -102
30 -165 54 -299 72 -364 141 -522 149 -340 344 -511 884 -773 302 -147 441
-201 683 -270 245 -69 344 -89 757 -155 509 -82 790 -97 1223 -65 535 40 791
83 1045 176 101 38 427 170 507 207 383 174 541 269 825 495 301 241 432 411
466 607 31 175 74 538 109 915 52 568 67 743 85 970 8 105 19 244 25 310 5 66
14 183 20 260 6 77 15 194 20 260 5 66 14 188 20 270 6 83 13 157 16 166 4 16
17 22 149 74 101 40 237 111 289 151 63 48 109 112 146 202 55 138 57 140 142
183 102 51 151 96 190 177 32 65 32 66 39 266 6 201 6 201 47 326 49 152 62
212 62 293 0 128 -36 210 -184 430 -177 262 -184 285 -196 557 -5 107 -14 218
-20 245 -42 172 -154 305 -350 414 -251 139 -280 180 -330 470 -34 199 -70
284 -156 367 -90 89 -166 116 -427 154 -173 25 -209 53 -352 271 -115 175
-184 250 -273 297 -99 53 -158 64 -372 71 -232 7 -238 9 -438 149 -144 102
-180 122 -272 150 -153 47 -264 36 -477 -47 -206 -80 -260 -73 -423 56 -162
128 -263 181 -388 204 -128 24 -237 -3 -472 -116 -247 -119 -286 -123 -555
-63 -165 36 -249 48 -349 49 -115 2 -112 0 -161 110 -18 41 -58 127 -89 193
-31 65 -56 120 -56 122 0 1 -40 87 -90 190 -49 102 -90 188 -90 189 0 10 -421
857 -489 985 -114 212 -224 396 -271 451 -65 76 -166 108 -285 89z m67 -292
c22 -19 58 -74 58 -90 0 -33 -75 -199 -123 -270 -51 -76 -69 -94 -88 -82 -12
7 -54 100 -76 167 l-15 47 48 75 c27 40 58 88 69 106 12 19 35 38 55 45 46 16
53 16 72 2z m214 -358 c41 -74 74 -147 74 -162 0 -52 -172 -373 -214 -400 -6
-4 -17 -2 -23 5 -10 10 -163 342 -163 353 0 1 31 41 68 88 38 48 88 125 111
172 29 60 47 84 58 82 8 -2 49 -64 89 -138z m208 -406 c31 -63 56 -122 56
-130 0 -54 -212 -394 -245 -394 -14 0 -125 219 -125 246 0 8 29 56 64 107 60
86 121 196 145 260 7 17 18 27 30 27 15 0 32 -26 75 -116z m196 -400 c39 -80
70 -152 70 -160 0 -8 -24 -63 -54 -123 -62 -123 -168 -271 -195 -271 -13 0
-37 40 -89 150 -40 83 -72 158 -72 166 0 9 31 59 69 110 39 52 93 135 122 184
28 50 58 90 65 90 8 0 44 -62 84 -146z m-1052 -246 c8 -69 -166 -348 -217
-348 -36 0 -90 123 -77 175 10 40 118 142 187 178 68 34 103 33 107 -5z m1248
-162 c30 -63 54 -122 54 -130 0 -21 -71 -163 -118 -236 -50 -79 -113 -150
-131 -150 -20 0 -147 251 -138 271 4 8 41 55 82 104 41 50 94 127 118 172 29
58 48 83 60 83 14 0 33 -30 73 -114z m-1116 -8 c22 -35 40 -69 40 -76 0 -8
-19 -50 -42 -95 -50 -95 -202 -263 -229 -252 -8 3 -30 37 -49 74 l-33 69 80
91 c48 54 97 123 122 171 23 44 48 80 56 80 8 0 33 -28 55 -62z m122 -205 c26
-31 98 -164 98 -181 0 -28 -92 -182 -140 -235 -53 -59 -118 -109 -132 -101
-11 7 -88 125 -112 173 l-17 31 95 99 c86 90 106 116 160 204 19 32 28 33 48
10z m1114 -51 c5 -4 16 -23 24 -42 7 -19 33 -75 57 -125 51 -106 53 -128 16
-152 -40 -24 -128 -97 -200 -165 -42 -40 -66 -56 -78 -52 -9 4 -35 44 -57 90
-46 97 -52 76 58 209 36 44 82 112 101 150 49 96 55 104 79 87z m-904 -316
c21 -38 38 -74 38 -79 0 -6 -20 -43 -45 -83 -46 -74 -194 -224 -221 -224 -16
0 -94 115 -94 138 0 8 40 54 88 101 55 54 102 112 126 154 26 45 44 67 55 65
9 -2 33 -34 53 -72z m2833 -60 c28 -13 86 -51 130 -85 84 -66 193 -139 235
-158 144 -67 293 -67 475 2 39 14 99 37 135 51 135 50 206 30 419 -120 219
-153 292 -177 549 -182 94 -2 190 -8 213 -14 62 -17 113 -72 225 -240 56 -85
126 -178 156 -207 101 -99 212 -149 383 -173 227 -32 262 -46 300 -124 13 -29
35 -112 50 -191 66 -360 149 -476 454 -636 103 -54 165 -107 195 -168 34 -67
36 -84 46 -305 13 -288 42 -371 225 -640 56 -83 112 -170 124 -193 32 -63 29
-151 -10 -266 -57 -172 -61 -194 -68 -393 -5 -140 -10 -196 -20 -208 -8 -9
-44 -32 -80 -51 -123 -65 -175 -123 -226 -250 -62 -158 -76 -170 -313 -270
-81 -34 -244 -110 -362 -168 -334 -163 -492 -226 -622 -247 -37 -5 -156 -10
-265 -9 -222 2 -248 -3 -363 -62 -77 -39 -160 -61 -435 -112 -293 -55 -366
-58 -629 -22 -145 20 -241 11 -306 -27 -19 -11 -73 -29 -120 -38 -47 -10 -130
-28 -185 -40 -234 -51 -438 -72 -575 -59 -58 5 -127 14 -155 20 -136 27 -167
34 -252 56 -51 13 -113 32 -138 43 -105 45 -232 48 -430 9 -27 -5 -97 -18
-155 -29 -138 -27 -243 -27 -356 0 -128 31 -350 106 -414 140 -30 16 -80 42
-110 57 l-55 28 -245 1 c-263 0 -287 4 -425 61 -78 33 -315 151 -385 193 -67
40 -193 87 -280 106 -119 25 -182 47 -209 75 -16 16 -42 68 -65 130 -76 209
-151 308 -317 420 -151 101 -199 153 -199 217 0 16 25 101 55 188 109 318 101
420 -63 769 -72 155 -102 238 -102 287 0 50 37 128 97 199 32 39 85 104 118
144 69 84 123 187 153 290 19 68 24 93 57 297 54 333 112 396 426 457 245 47
338 86 445 183 89 82 139 164 214 352 42 107 55 131 98 178 71 79 157 106 412
129 163 14 232 29 363 77 114 42 183 88 382 256 210 176 328 199 650 127 168
-38 220 -44 340 -45 165 0 244 20 422 111 70 36 151 74 178 84 71 26 149 24
210 -5z m-2680 -223 c25 -48 44 -94 43 -102 -2 -12 -28 -18 -108 -27 -58 -6
-129 -19 -158 -27 -47 -15 -54 -15 -59 -1 -4 10 17 37 65 80 39 36 86 87 103
114 19 29 40 50 50 50 12 0 32 -28 64 -87z m5940 -5043 c0 -41 -6 -149 -13
-240 -7 -91 -17 -221 -22 -290 -5 -69 -16 -210 -25 -315 -16 -198 -30 -377
-40 -505 -3 -41 -10 -118 -15 -170 -5 -52 -14 -153 -20 -225 -61 -718 -123
-1228 -160 -1312 -27 -61 -71 -122 -139 -191 -73 -74 -381 -322 -471 -378
-113 -72 -326 -184 -347 -184 -13 0 -23 8 -27 22 -10 37 1 2315 13 2668 12
337 35 697 52 810 23 154 20 153 359 161 245 6 271 8 350 32 89 27 274 101
400 160 41 20 82 35 90 34 12 -2 15 -18 15 -77z m-6513 -29 c300 -145 343
-155 638 -156 264 0 278 -3 306 -71 20 -49 62 -296 94 -554 5 -41 16 -129 24
-195 22 -174 44 -367 66 -595 5 -52 16 -162 25 -245 36 -350 98 -1056 155
-1760 6 -71 12 -151 15 -177 7 -79 -3 -79 -185 12 -448 222 -588 336 -707 575
-82 165 -103 252 -218 943 -74 444 -90 546 -140 862 -14 91 -34 219 -45 285
-19 120 -31 192 -70 445 -11 74 -25 162 -30 195 -71 443 -77 495 -55 495 2 0
60 -27 127 -59z m5108 -255 c9 -11 9 -37 1 -108 -38 -333 -62 -1364 -60 -2582
0 -511 -3 -932 -8 -937 -7 -7 -150 -67 -363 -151 -137 -55 -251 -88 -387 -112
-115 -21 -288 -40 -305 -34 -22 9 -24 71 -59 1348 -17 656 -23 1953 -10 2187
14 246 24 309 53 324 25 14 169 7 348 -16 112 -14 151 -15 230 -6 119 14 315
50 541 100 4 0 12 -5 19 -13z m-3856 -66 c32 -12 110 -35 174 -52 99 -26 135
-31 237 -31 116 0 145 4 448 64 26 5 87 9 135 9 114 0 145 -17 161 -87 78
-368 134 -1472 167 -3332 8 -438 13 -415 -73 -400 -27 5 -120 20 -208 35 -88
14 -207 37 -265 50 -187 42 -482 132 -503 153 -8 8 -16 79 -37 346 -6 77 -15
190 -20 250 -5 61 -14 164 -20 230 -5 66 -17 197 -25 290 -8 94 -20 224 -25
290 -18 202 -74 785 -105 1080 -37 356 -88 779 -115 945 -6 36 -13 91 -17 123
-7 67 -2 69 91 37z m2489 -222 c-12 -213 -8 -1787 6 -2298 6 -245 18 -644 26
-888 8 -243 12 -449 9 -456 -8 -21 -28 -24 -282 -37 -184 -10 -271 -10 -411 0
-218 15 -300 26 -317 43 -9 10 -15 161 -23 608 -30 1608 -73 2543 -137 3014
-10 72 -11 113 -5 119 7 7 33 6 78 -2 204 -36 247 -42 343 -47 104 -6 205 2
390 32 122 20 243 44 249 50 2 2 22 4 43 4 l39 0 -8 -142z"/>
<path d="M6132 8967 c-26 -27 -32 -41 -32 -78 0 -39 5 -50 36 -80 20 -18 40
-44 45 -57 5 -12 17 -25 26 -29 10 -4 36 -18 58 -32 60 -39 147 -81 167 -81 9
0 20 -4 23 -10 3 -5 24 -10 46 -10 22 0 49 -5 59 -10 13 -7 21 -7 25 0 3 5 22
10 42 10 58 0 197 53 223 85 7 8 18 15 24 15 14 0 105 95 124 127 28 51 5 98
-65 138 -42 23 -55 25 -174 25 -74 0 -130 4 -134 10 -4 6 -93 10 -234 10
l-227 0 -32 -33z m363 -163 c0 -10 -8 -20 -18 -22 -22 -4 -35 27 -16 39 20 12
34 5 34 -17z m113 -21 c-4 -22 -57 -30 -69 -12 -12 20 -1 29 37 29 28 0 35 -4
32 -17z"/>
<path d="M4721 8815 c-13 -7 -38 -11 -56 -8 -19 3 -44 -1 -63 -11 -17 -9 -53
-16 -81 -16 -27 0 -53 -4 -56 -10 -3 -5 -20 -10 -37 -10 -17 0 -40 -9 -52 -20
-151 -139 -184 -169 -203 -179 -22 -11 -81 -92 -103 -143 -17 -35 4 -83 43
-99 36 -15 166 -15 194 0 12 6 35 11 52 11 16 0 33 5 36 10 3 6 17 10 30 10
13 0 27 5 30 10 3 6 17 10 30 10 14 0 40 9 60 20 20 11 41 20 49 20 29 0 254
138 290 179 11 11 24 21 30 21 19 0 36 52 36 109 l0 56 -53 28 c-58 30 -133
35 -176 12z m-213 -246 c4 -21 -26 -33 -44 -18 -11 9 -12 15 -3 26 15 18 43
13 47 -8z"/>
<path d="M8365 8490 c-3 -5 -17 -10 -29 -10 -13 0 -30 -7 -37 -16 -7 -9 -23
-20 -36 -25 -19 -7 -23 -16 -23 -49 0 -26 5 -40 13 -40 7 0 75 -63 152 -140
77 -77 145 -140 150 -140 6 0 24 -14 41 -31 51 -53 171 -98 189 -69 3 6 14 10
24 10 21 0 52 33 69 73 35 81 1 290 -55 339 -32 28 -121 68 -152 68 -16 0 -33
5 -36 10 -3 6 -37 10 -75 10 -38 0 -72 5 -75 10 -3 6 -30 10 -60 10 -30 0 -57
-4 -60 -10z m263 -207 c2 -8 -5 -13 -17 -13 -12 0 -21 6 -21 16 0 18 31 15 38
-3z m42 -17 c0 -8 -4 -17 -8 -20 -13 -8 -35 11 -28 23 10 16 36 14 36 -3z"/>
<path d="M5115 7540 c-3 -5 -31 -10 -61 -10 -72 0 -104 -28 -104 -92 0 -36 6
-48 42 -85 23 -24 48 -43 55 -43 7 0 30 -16 50 -35 20 -19 42 -35 49 -35 6 0
17 -7 24 -15 14 -17 108 -65 129 -65 8 0 25 -9 37 -21 20 -19 24 -20 51 -5 16
8 35 22 42 30 8 9 19 16 25 16 11 0 43 65 64 131 7 19 12 62 12 95 0 53 -3 63
-27 86 -56 51 -85 58 -239 58 -84 0 -145 -4 -149 -10z m240 -190 c0 -23 -49
-20 -53 3 -3 15 2 18 25 15 17 -2 28 -9 28 -18z"/>
<path d="M7505 7410 c-3 -5 -17 -10 -30 -10 -13 0 -51 -16 -85 -35 -34 -19
-65 -35 -69 -35 -5 0 -16 -9 -26 -20 -10 -11 -24 -20 -30 -20 -7 0 -24 -12
-39 -26 -21 -21 -26 -36 -26 -73 0 -40 5 -52 34 -80 37 -36 119 -81 147 -81
10 0 21 -4 24 -10 3 -5 21 -10 39 -10 18 0 41 -7 52 -15 10 -8 38 -15 62 -15
23 0 51 -5 61 -11 38 -25 120 20 152 82 23 46 19 63 -28 122 -13 16 -23 34
-23 41 0 7 -9 21 -20 31 -11 10 -20 23 -20 29 0 6 -30 42 -68 79 -64 64 -93
79 -107 57z m-5 -204 c0 -21 -21 -31 -30 -15 -5 7 -6 17 -4 21 9 14 34 9 34
-6z"/>
<path d="M2920 7363 c-38 -25 -250 -236 -250 -249 0 -6 -7 -17 -15 -24 -24
-20 -45 -71 -45 -110 0 -37 17 -59 67 -87 27 -15 109 -17 118 -3 3 6 22 10 42
10 36 0 91 14 125 31 10 5 23 9 30 9 20 0 214 98 228 115 7 8 18 15 25 15 8 0
24 14 37 31 13 17 33 41 46 53 15 16 22 35 22 63 0 32 -7 45 -37 75 -46 44
-73 58 -110 58 -15 0 -37 7 -47 15 -29 22 -202 20 -236 -2z m135 -183 c0 -8
-9 -16 -20 -19 -11 -2 -30 -14 -42 -27 -13 -14 -28 -21 -37 -18 -23 9 -20 24
11 56 21 22 35 28 58 26 19 -2 30 -9 30 -18z"/>
<path d="M9626 7239 c-14 -17 -26 -37 -26 -45 0 -20 58 -130 76 -145 8 -6 14
-17 14 -24 0 -6 9 -20 21 -31 25 -22 89 -117 89 -131 0 -5 9 -18 20 -28 11
-10 20 -23 20 -29 0 -7 26 -37 58 -69 55 -54 60 -57 108 -57 46 0 53 3 95 48
60 62 109 165 109 229 0 46 -3 52 -52 100 -29 28 -63 56 -75 62 -13 7 -23 18
-23 26 0 8 -8 15 -18 15 -10 0 -37 9 -60 20 -22 11 -48 20 -57 20 -9 0 -26 7
-39 15 -44 29 -130 55 -182 55 -46 0 -55 -4 -78 -31z m379 -283 c16 -24 11
-56 -9 -56 -14 0 -48 65 -39 74 13 13 33 5 48 -18z"/>
</g>
</svg>
